{
    "asset" : {
        "generator" : "Khronos glTF Blender I/O v1.3.48",
        "version" : "2.0"
    },
    "scene" : 0,
    "scenes" : [
        {
            "name" : "Scene",
            "nodes" : [
                0
            ]
        }
    ],
    "nodes" : [
        {
            "mesh" : 0,
            "name" : "Chalice.001",
            "scale" : [
                0.1548159122467041,
                0.1548159122467041,
                0.1548159122467041
            ],
            "translation" : [
                -24.73413848876953,
                0.561626672744751,
                18.938894271850586
            ]
        }
    ],
    "materials" : [
        {
            "doubleSided" : true,
            "emissiveFactor" : [
                0,
                0,
                0
            ],
            "name" : "Gold.001",
            "pbrMetallicRoughness" : {
                "baseColorFactor" : [
                    1,
                    0.7736401557922363,
                    0.03809502720832825,
                    1
                ],
                "metallicFactor" : 1,
                "roughnessFactor" : 0.5407325625419617
            }
        }
    ],
    "meshes" : [
        {
            "name" : "Cylinder.003",
            "primitives" : [
                {
                    "attributes" : {
                        "POSITION" : 0,
                        "NORMAL" : 1,
                        "TEXCOORD_0" : 2
                    },
                    "indices" : 3,
                    "material" : 0
                }
            ]
        }
    ],
    "accessors" : [
        {
            "bufferView" : 0,
            "componentType" : 5126,
            "count" : 458,
            "max" : [
                1.2077367305755615,
                0.6237133145332336,
                1.2077343463897705
            ],
            "min" : [
                -1.2077341079711914,
                -2.715885639190674,
                -1.2077367305755615
            ],
            "type" : "VEC3"
        },
        {
            "bufferView" : 1,
            "componentType" : 5126,
            "count" : 458,
            "type" : "VEC3"
        },
        {
            "bufferView" : 2,
            "componentType" : 5126,
            "count" : 458,
            "type" : "VEC2"
        },
        {
            "bufferView" : 3,
            "componentType" : 5123,
            "count" : 1716,
            "type" : "SCALAR"
        }
    ],
    "bufferViews" : [
        {
            "buffer" : 0,
            "byteLength" : 5496,
            "byteOffset" : 0
        },
        {
            "buffer" : 0,
            "byteLength" : 5496,
            "byteOffset" : 5496
        },
        {
            "buffer" : 0,
            "byteLength" : 3664,
            "byteOffset" : 10992
        },
        {
            "buffer" : 0,
            "byteLength" : 3432,
            "byteOffset" : 14656
        }
    ],
    "buffers" : [
        {
            "byteLength" : 18088,
            "uri" : "data:application/octet-stream;base64,"
        }
    ]
}
