{
    "asset" : {
        "generator" : "Khronos glTF Blender I/O v1.3.48",
        "version" : "2.0"
    },
    "scene" : 0,
    "scenes" : [
        {
            "name" : "Scene",
            "nodes" : [
                0,
                1
            ]
        }
    ],
    "nodes" : [
        {
            "mesh" : 0,
            "name" : "TreasureChest.001"
        },
        {
            "mesh" : 1,
            "name" : "lid_collider"
        }
    ],
    "materials" : [
        {
            "doubleSided" : true,
            "emissiveFactor" : [
                0,
                0,
                0
            ],
            "name" : "Wood.001",
            "normalTexture" : {
                "index" : 0,
                "texCoord" : 0
            },
            "pbrMetallicRoughness" : {
                "baseColorTexture" : {
                    "index" : 1,
                    "texCoord" : 0
                },
                "metallicFactor" : 0,
                "roughnessFactor" : 0.5
            }
        },
        {
            "doubleSided" : true,
            "emissiveFactor" : [
                0,
                0,
                0
            ],
            "name" : "BrownLeather.001",
            "normalTexture" : {
                "index" : 2,
                "texCoord" : 0
            },
            "pbrMetallicRoughness" : {
                "baseColorTexture" : {
                    "index" : 3,
                    "texCoord" : 0
                },
                "metallicRoughnessTexture" : {
                    "index" : 4,
                    "texCoord" : 0
                }
            }
        },
        {
            "doubleSided" : true,
            "emissiveFactor" : [
                0,
                0,
                0
            ],
            "name" : "Black.001",
            "normalTexture" : {
                "index" : 5,
                "texCoord" : 0
            },
            "pbrMetallicRoughness" : {
                "baseColorTexture" : {
                    "index" : 6,
                    "texCoord" : 0
                },
                "metallicRoughnessTexture" : {
                    "index" : 7,
                    "texCoord" : 0
                }
            }
        },
        {
            "doubleSided" : true,
            "emissiveFactor" : [
                0,
                0,
                0
            ],
            "name" : "Wood.002",
            "normalTexture" : {
                "index" : 8,
                "texCoord" : 0
            },
            "pbrMetallicRoughness" : {
                "baseColorTexture" : {
                    "index" : 9,
                    "texCoord" : 0
                },
                "metallicFactor" : 0,
                "roughnessFactor" : 0.5
            }
        },
        {
            "doubleSided" : true,
            "emissiveFactor" : [
                0,
                0,
                0
            ],
            "name" : "BrownLeather.002",
            "normalTexture" : {
                "index" : 10,
                "texCoord" : 0
            },
            "pbrMetallicRoughness" : {
                "baseColorTexture" : {
                    "index" : 11,
                    "texCoord" : 0
                },
                "metallicRoughnessTexture" : {
                    "index" : 12,
                    "texCoord" : 0
                }
            }
        },
        {
            "doubleSided" : true,
            "emissiveFactor" : [
                0,
                0,
                0
            ],
            "name" : "Black.002",
            "normalTexture" : {
                "index" : 13,
                "texCoord" : 0
            },
            "pbrMetallicRoughness" : {
                "baseColorTexture" : {
                    "index" : 14,
                    "texCoord" : 0
                },
                "metallicRoughnessTexture" : {
                    "index" : 15,
                    "texCoord" : 0
                }
            }
        }
    ],
    "meshes" : [
        {
            "name" : "Cube.018",
            "primitives" : [
                {
                    "attributes" : {
                        "POSITION" : 0,
                        "NORMAL" : 1,
                        "TEXCOORD_0" : 2
                    },
                    "indices" : 3,
                    "material" : 0
                },
                {
                    "attributes" : {
                        "POSITION" : 4,
                        "NORMAL" : 5,
                        "TEXCOORD_0" : 6
                    },
                    "indices" : 7,
                    "material" : 1
                },
                {
                    "attributes" : {
                        "POSITION" : 8,
                        "NORMAL" : 9,
                        "TEXCOORD_0" : 10
                    },
                    "indices" : 11,
                    "material" : 2
                }
            ]
        },
        {
            "name" : "Cube.003",
            "primitives" : [
                {
                    "attributes" : {
                        "POSITION" : 12,
                        "NORMAL" : 13,
                        "TEXCOORD_0" : 14
                    },
                    "indices" : 15,
                    "material" : 3
                },
                {
                    "attributes" : {
                        "POSITION" : 16,
                        "NORMAL" : 17,
                        "TEXCOORD_0" : 18
                    },
                    "indices" : 19,
                    "material" : 4
                },
                {
                    "attributes" : {
                        "POSITION" : 20,
                        "NORMAL" : 21,
                        "TEXCOORD_0" : 22
                    },
                    "indices" : 11,
                    "material" : 5
                }
            ]
        }
    ],
    "textures" : [
        {
            "source" : 0
        },
        {
            "source" : 1
        },
        {
            "source" : 2
        },
        {
            "source" : 3
        },
        {
            "source" : 4
        },
        {
            "source" : 5
        },
        {
            "source" : 6
        },
        {
            "source" : 7
        },
        {
            "source" : 0
        },
        {
            "source" : 1
        },
        {
            "source" : 2
        },
        {
            "source" : 3
        },
        {
            "source" : 4
        },
        {
            "source" : 5
        },
        {
            "source" : 6
        },
        {
            "source" : 7
        }
    ],
    "images" : [
        {
            "bufferView" : 4,
            "mimeType" : "image/jpeg",
            "name" : "TreasureChest3_Wood_Normal"
        },
        {
            "bufferView" : 5,
            "mimeType" : "image/jpeg",
            "name" : "TreasureChest3_Wood_BaseColor"
        },
        {
            "bufferView" : 10,
            "mimeType" : "image/jpeg",
            "name" : "TreasureChest3_BrownLeather_Normal"
        },
        {
            "bufferView" : 11,
            "mimeType" : "image/jpeg",
            "name" : "TreasureChest3_BrownLeather_BaseColor"
        },
        {
            "bufferView" : 12,
            "mimeType" : "image/png",
            "name" : "TreasureChest3_BrownLeather_Roughness"
        },
        {
            "bufferView" : 17,
            "mimeType" : "image/jpeg",
            "name" : "TreasureChest3_Black_Normal"
        },
        {
            "bufferView" : 18,
            "mimeType" : "image/png",
            "name" : "TreasureChest3_Black_BaseColor"
        },
        {
            "bufferView" : 19,
            "mimeType" : "image/png",
            "name" : "TreasureChest3_Black_Roughness"
        }
    ],
    "accessors" : [
        {
            "bufferView" : 0,
            "componentType" : 5126,
            "count" : 1104,
            "max" : [
                0.7672284245491028,
                0.2983105778694153,
                0.7220935821533203
            ],
            "min" : [
                -0.028565099462866783,
                -0.02947663515806198,
                -0.7390651702880859
            ],
            "type" : "VEC3"
        },
        {
            "bufferView" : 1,
            "componentType" : 5126,
            "count" : 1104,
            "type" : "VEC3"
        },
        {
            "bufferView" : 2,
            "componentType" : 5126,
            "count" : 1104,
            "type" : "VEC2"
        },
        {
            "bufferView" : 3,
            "componentType" : 5123,
            "count" : 1758,
            "type" : "SCALAR"
        },
        {
            "bufferView" : 6,
            "componentType" : 5126,
            "count" : 571,
            "max" : [
                0.7473881840705872,
                0.2723589539527893,
                0.3226509094238281
            ],
            "min" : [
                -0.008724858984351158,
                -0.029528073966503143,
                -0.33962059020996094
            ],
            "type" : "VEC3"
        },
        {
            "bufferView" : 7,
            "componentType" : 5126,
            "count" : 571,
            "type" : "VEC3"
        },
        {
            "bufferView" : 8,
            "componentType" : 5126,
            "count" : 571,
            "type" : "VEC2"
        },
        {
            "bufferView" : 9,
            "componentType" : 5123,
            "count" : 732,
            "type" : "SCALAR"
        },
        {
            "bufferView" : 13,
            "componentType" : 5126,
            "count" : 120,
            "max" : [
                0.7352975010871887,
                0.2656254768371582,
                0.6282615661621094
            ],
            "min" : [
                0.0033658239990472794,
                0.02949560433626175,
                -0.6452312469482422
            ],
            "type" : "VEC3"
        },
        {
            "bufferView" : 14,
            "componentType" : 5126,
            "count" : 120,
            "type" : "VEC3"
        },
        {
            "bufferView" : 15,
            "componentType" : 5126,
            "count" : 120,
            "type" : "VEC2"
        },
        {
            "bufferView" : 16,
            "componentType" : 5123,
            "count" : 306,
            "type" : "SCALAR"
        },
        {
            "bufferView" : 20,
            "componentType" : 5126,
            "count" : 1114,
            "max" : [
                0.7702591419219971,
                0.300339013338089,
                0.7220935821533203
            ],
            "min" : [
                -0.025534413754940033,
                -0.027448207139968872,
                -0.7390651702880859
            ],
            "type" : "VEC3"
        },
        {
            "bufferView" : 21,
            "componentType" : 5126,
            "count" : 1114,
            "type" : "VEC3"
        },
        {
            "bufferView" : 22,
            "componentType" : 5126,
            "count" : 1114,
            "type" : "VEC2"
        },
        {
            "bufferView" : 23,
            "componentType" : 5123,
            "count" : 1758,
            "type" : "SCALAR"
        },
        {
            "bufferView" : 24,
            "componentType" : 5126,
            "count" : 570,
            "max" : [
                0.7504189014434814,
                0.274387389421463,
                0.3226509094238281
            ],
            "min" : [
                -0.005694173276424408,
                -0.027499645948410034,
                -0.33962059020996094
            ],
            "type" : "VEC3"
        },
        {
            "bufferView" : 25,
            "componentType" : 5126,
            "count" : 570,
            "type" : "VEC3"
        },
        {
            "bufferView" : 26,
            "componentType" : 5126,
            "count" : 570,
            "type" : "VEC2"
        },
        {
            "bufferView" : 27,
            "componentType" : 5123,
            "count" : 732,
            "type" : "SCALAR"
        },
        {
            "bufferView" : 28,
            "componentType" : 5126,
            "count" : 120,
            "max" : [
                0.738328218460083,
                0.2676539123058319,
                0.6282615661621094
            ],
            "min" : [
                0.0063965097069740295,
                0.03152403235435486,
                -0.6452312469482422
            ],
            "type" : "VEC3"
        },
        {
            "bufferView" : 29,
            "componentType" : 5126,
            "count" : 120,
            "type" : "VEC3"
        },
        {
            "bufferView" : 30,
            "componentType" : 5126,
            "count" : 120,
            "type" : "VEC2"
        }
    ],
    "bufferViews" : [
        {
            "buffer" : 0,
            "byteLength" : 13248,
            "byteOffset" : 0
        },
        {
            "buffer" : 0,
            "byteLength" : 13248,
            "byteOffset" : 13248
        },
        {
            "buffer" : 0,
            "byteLength" : 8832,
            "byteOffset" : 26496
        },
        {
            "buffer" : 0,
            "byteLength" : 3516,
            "byteOffset" : 35328
        },
        {
            "buffer" : 0,
            "byteLength" : 885044,
            "byteOffset" : 38844
        },
        {
            "buffer" : 0,
            "byteLength" : 420143,
            "byteOffset" : 923888
        },
        {
            "buffer" : 0,
            "byteLength" : 6852,
            "byteOffset" : 1344032
        },
        {
            "buffer" : 0,
            "byteLength" : 6852,
            "byteOffset" : 1350884
        },
        {
            "buffer" : 0,
            "byteLength" : 4568,
            "byteOffset" : 1357736
        },
        {
            "buffer" : 0,
            "byteLength" : 1464,
            "byteOffset" : 1362304
        },
        {
            "buffer" : 0,
            "byteLength" : 182541,
            "byteOffset" : 1363768
        },
        {
            "buffer" : 0,
            "byteLength" : 70096,
            "byteOffset" : 1546312
        },
        {
            "buffer" : 0,
            "byteLength" : 235857,
            "byteOffset" : 1616408
        },
        {
            "buffer" : 0,
            "byteLength" : 1440,
            "byteOffset" : 1852268
        },
        {
            "buffer" : 0,
            "byteLength" : 1440,
            "byteOffset" : 1853708
        },
        {
            "buffer" : 0,
            "byteLength" : 960,
            "byteOffset" : 1855148
        },
        {
            "buffer" : 0,
            "byteLength" : 612,
            "byteOffset" : 1856108
        },
        {
            "buffer" : 0,
            "byteLength" : 400520,
            "byteOffset" : 1856720
        },
        {
            "buffer" : 0,
            "byteLength" : 45959,
            "byteOffset" : 2257240
        },
        {
            "buffer" : 0,
            "byteLength" : 370554,
            "byteOffset" : 2303200
        },
        {
            "buffer" : 0,
            "byteLength" : 13368,
            "byteOffset" : 2673756
        },
        {
            "buffer" : 0,
            "byteLength" : 13368,
            "byteOffset" : 2687124
        },
        {
            "buffer" : 0,
            "byteLength" : 8912,
            "byteOffset" : 2700492
        },
        {
            "buffer" : 0,
            "byteLength" : 3516,
            "byteOffset" : 2709404
        },
        {
            "buffer" : 0,
            "byteLength" : 6840,
            "byteOffset" : 2712920
        },
        {
            "buffer" : 0,
            "byteLength" : 6840,
            "byteOffset" : 2719760
        },
        {
            "buffer" : 0,
            "byteLength" : 4560,
            "byteOffset" : 2726600
        },
        {
            "buffer" : 0,
            "byteLength" : 1464,
            "byteOffset" : 2731160
        },
        {
            "buffer" : 0,
            "byteLength" : 1440,
            "byteOffset" : 2732624
        },
        {
            "buffer" : 0,
            "byteLength" : 1440,
            "byteOffset" : 2734064
        },
        {
            "buffer" : 0,
            "byteLength" : 960,
            "byteOffset" : 2735504
        }
    ],
    "buffers" : [
        {
            "byteLength" : 2736464,
            "uri" : "data:application/octet-stream;base64,"
        }
    ]
}
