{
    "asset" : {
        "generator" : "Khronos glTF Blender I/O v1.3.48",
        "version" : "2.0"
    },
    "scene" : 0,
    "scenes" : [
        {
            "name" : "Scene",
            "nodes" : [
                0,
                1
            ]
        }
    ],
    "nodes" : [
        {
            "mesh" : 0,
            "name" : "Cube"
        },
        {
            "mesh" : 1,
            "name" : "key_collider"
        }
    ],
    "materials" : [
        {
            "doubleSided" : true,
            "emissiveFactor" : [
                0,
                0,
                0
            ],
            "name" : "Key.001",
            "pbrMetallicRoughness" : {
                "baseColorTexture" : {
                    "index" : 0,
                    "texCoord" : 0
                },
                "metallicRoughnessTexture" : {
                    "index" : 1,
                    "texCoord" : 0
                }
            }
        }
    ],
    "meshes" : [
        {
            "name" : "Cube.004",
            "primitives" : [
                {
                    "attributes" : {
                        "POSITION" : 0,
                        "NORMAL" : 1,
                        "TEXCOORD_0" : 2
                    },
                    "indices" : 3,
                    "material" : 0
                }
            ]
        },
        {
            "name" : "Cube.005",
            "primitives" : [
                {
                    "attributes" : {
                        "POSITION" : 4,
                        "NORMAL" : 5,
                        "TEXCOORD_0" : 6
                    },
                    "indices" : 7
                }
            ]
        }
    ],
    "textures" : [
        {
            "source" : 0
        },
        {
            "source" : 1
        }
    ],
    "images" : [
        {
            "bufferView" : 4,
            "mimeType" : "image/png",
            "name" : "Key_Key_BaseColor_small"
        },
        {
            "bufferView" : 5,
            "mimeType" : "image/png",
            "name" : "Key_Key_Roughness_small"
        }
    ],
    "accessors" : [
        {
            "bufferView" : 0,
            "componentType" : 5126,
            "count" : 1364,
            "max" : [
                0.035117149353027344,
                0.18297886848449707,
                0.43050384521484375
            ],
            "min" : [
                -0.03517627716064453,
                -0.1512610912322998,
                -0.4130516052246094
            ],
            "type" : "VEC3"
        },
        {
            "bufferView" : 1,
            "componentType" : 5126,
            "count" : 1364,
            "type" : "VEC3"
        },
        {
            "bufferView" : 2,
            "componentType" : 5126,
            "count" : 1364,
            "type" : "VEC2"
        },
        {
            "bufferView" : 3,
            "componentType" : 5123,
            "count" : 3168,
            "type" : "SCALAR"
        },
        {
            "bufferView" : 6,
            "componentType" : 5126,
            "count" : 24,
            "max" : [
                0.1777491271495819,
                0.20853836834430695,
                0.4575125575065613
            ],
            "min" : [
                -0.1777491271495819,
                -0.20853836834430695,
                -0.4575125575065613
            ],
            "type" : "VEC3"
        },
        {
            "bufferView" : 7,
            "componentType" : 5126,
            "count" : 24,
            "type" : "VEC3"
        },
        {
            "bufferView" : 8,
            "componentType" : 5126,
            "count" : 24,
            "type" : "VEC2"
        },
        {
            "bufferView" : 9,
            "componentType" : 5123,
            "count" : 36,
            "type" : "SCALAR"
        }
    ],
    "bufferViews" : [
        {
            "buffer" : 0,
            "byteLength" : 16368,
            "byteOffset" : 0
        },
        {
            "buffer" : 0,
            "byteLength" : 16368,
            "byteOffset" : 16368
        },
        {
            "buffer" : 0,
            "byteLength" : 10912,
            "byteOffset" : 32736
        },
        {
            "buffer" : 0,
            "byteLength" : 6336,
            "byteOffset" : 43648
        },
        {
            "buffer" : 0,
            "byteLength" : 146368,
            "byteOffset" : 49984
        },
        {
            "buffer" : 0,
            "byteLength" : 260133,
            "byteOffset" : 196352
        },
        {
            "buffer" : 0,
            "byteLength" : 288,
            "byteOffset" : 456488
        },
        {
            "buffer" : 0,
            "byteLength" : 288,
            "byteOffset" : 456776
        },
        {
            "buffer" : 0,
            "byteLength" : 192,
            "byteOffset" : 457064
        },
        {
            "buffer" : 0,
            "byteLength" : 72,
            "byteOffset" : 457256
        }
    ],
    "buffers" : [
        {
            "byteLength" : 457328,
            "uri" : "data:application/octet-stream;base64,"
        }
    ]
}
