{
    "asset" : {
        "generator" : "Khronos glTF Blender I/O v1.3.48",
        "version" : "2.0"
    },
    "scene" : 0,
    "scenes" : [
        {
            "name" : "Scene",
            "nodes" : [
                0
            ]
        }
    ],
    "nodes" : [
        {
            "mesh" : 0,
            "name" : "TreasureChest.001",
            "scale" : [
                0.6495268940925598,
                0.6495268940925598,
                0.6495268940925598
            ],
            "translation" : [
                -24.608144760131836,
                0.579768180847168,
                18.934627532958984
            ]
        }
    ],
    "materials" : [
        {
            "doubleSided" : true,
            "emissiveFactor" : [
                0,
                0,
                0
            ],
            "name" : "CopperChest",
            "pbrMetallicRoughness" : {
                "baseColorTexture" : {
                    "index" : 0,
                    "texCoord" : 0
                },
                "metallicFactor" : 0.8851998448371887,
                "metallicRoughnessTexture" : {
                    "index" : 1,
                    "texCoord" : 0
                }
            }
        }
    ],
    "meshes" : [
        {
            "name" : "Cube.017",
            "primitives" : [
                {
                    "attributes" : {
                        "POSITION" : 0,
                        "NORMAL" : 1,
                        "TEXCOORD_0" : 2
                    },
                    "indices" : 3,
                    "material" : 0
                }
            ]
        }
    ],
    "textures" : [
        {
            "source" : 0
        },
        {
            "source" : 1
        }
    ],
    "images" : [
        {
            "bufferView" : 4,
            "mimeType" : "image/jpeg",
            "name" : "TreasureChest3_Copper_BaseColor_1"
        },
        {
            "bufferView" : 5,
            "mimeType" : "image/png",
            "name" : "TreasureChest3_Copper_Roughness_2"
        }
    ],
    "accessors" : [
        {
            "bufferView" : 0,
            "componentType" : 5126,
            "count" : 331,
            "max" : [
                0.46451568603515625,
                0.1754799485206604,
                0.09736251831054688
            ],
            "min" : [
                0.4158344268798828,
                -0.01597881317138672,
                -0.09584426879882812
            ],
            "type" : "VEC3"
        },
        {
            "bufferView" : 1,
            "componentType" : 5126,
            "count" : 331,
            "type" : "VEC3"
        },
        {
            "bufferView" : 2,
            "componentType" : 5126,
            "count" : 331,
            "type" : "VEC2"
        },
        {
            "bufferView" : 3,
            "componentType" : 5123,
            "count" : 762,
            "type" : "SCALAR"
        }
    ],
    "bufferViews" : [
        {
            "buffer" : 0,
            "byteLength" : 3972,
            "byteOffset" : 0
        },
        {
            "buffer" : 0,
            "byteLength" : 3972,
            "byteOffset" : 3972
        },
        {
            "buffer" : 0,
            "byteLength" : 2648,
            "byteOffset" : 7944
        },
        {
            "buffer" : 0,
            "byteLength" : 1524,
            "byteOffset" : 10592
        },
        {
            "buffer" : 0,
            "byteLength" : 261180,
            "byteOffset" : 12116
        },
        {
            "buffer" : 0,
            "byteLength" : 649484,
            "byteOffset" : 273296
        }
    ],
    "buffers" : [
        {
            "byteLength" : 922780,
            "uri" : "data:application/octet-stream;base64,"
        }
    ]
}
