{
    "asset" : {
        "generator" : "Khronos glTF Blender I/O v1.3.48",
        "version" : "2.0"
    },
    "scene" : 0,
    "scenes" : [
        {
            "name" : "Scene",
            "nodes" : [
                0,
                1
            ]
        }
    ],
    "nodes" : [
        {
            "mesh" : 0,
            "name" : "DragonSnake",
            "rotation" : [
                0,
                -0.24060462415218353,
                0,
                0.9706231951713562
            ],
            "translation" : [
                5.970019817352295,
                2.0621440410614014,
                10.443299293518066
            ]
        },
        {
            "mesh" : 1,
            "name" : "DragonSnake_collider",
            "scale" : [
                1.542224645614624,
                3.0970041751861572,
                1.542224645614624
            ],
            "translation" : [
                5.9180684089660645,
                3.382242202758789,
                10.49330997467041
            ]
        }
    ],
    "materials" : [
        {
            "doubleSided" : true,
            "emissiveFactor" : [
                0,
                0,
                0
            ],
            "name" : "DragonSnake",
            "normalTexture" : {
                "index" : 0,
                "scale" : 3,
                "texCoord" : 0
            },
            "pbrMetallicRoughness" : {
                "baseColorTexture" : {
                    "index" : 1,
                    "texCoord" : 0
                },
                "metallicFactor" : 0,
                "roughnessFactor" : 0.8545454740524292
            }
        }
    ],
    "meshes" : [
        {
            "name" : "Cube.004",
            "primitives" : [
                {
                    "attributes" : {
                        "POSITION" : 0,
                        "NORMAL" : 1,
                        "TEXCOORD_0" : 2
                    },
                    "indices" : 3,
                    "material" : 0
                }
            ]
        },
        {
            "name" : "Cylinder",
            "primitives" : [
                {
                    "attributes" : {
                        "POSITION" : 4,
                        "NORMAL" : 5,
                        "TEXCOORD_0" : 6
                    },
                    "indices" : 7
                }
            ]
        }
    ],
    "textures" : [
        {
            "source" : 0
        },
        {
            "source" : 1
        }
    ],
    "images" : [
        {
            "bufferView" : 4,
            "mimeType" : "image/jpeg",
            "name" : "DragonSnake_Normal"
        },
        {
            "bufferView" : 5,
            "mimeType" : "image/jpeg",
            "name" : "DragonSnake_DefaultMaterial_BaseColor"
        }
    ],
    "accessors" : [
        {
            "bufferView" : 0,
            "componentType" : 5126,
            "count" : 2170,
            "max" : [
                1.0536961555480957,
                1.9742200374603271,
                0.45938873291015625
            ],
            "min" : [
                -0.7024149894714355,
                -2.1652283668518066,
                -0.5382366180419922
            ],
            "type" : "VEC3"
        },
        {
            "bufferView" : 1,
            "componentType" : 5126,
            "count" : 2170,
            "type" : "VEC3"
        },
        {
            "bufferView" : 2,
            "componentType" : 5126,
            "count" : 2170,
            "type" : "VEC2"
        },
        {
            "bufferView" : 3,
            "componentType" : 5123,
            "count" : 6156,
            "type" : "SCALAR"
        },
        {
            "bufferView" : 6,
            "componentType" : 5126,
            "count" : 192,
            "max" : [
                1,
                1,
                1
            ],
            "min" : [
                -1,
                -1,
                -1
            ],
            "type" : "VEC3"
        },
        {
            "bufferView" : 7,
            "componentType" : 5126,
            "count" : 192,
            "type" : "VEC3"
        },
        {
            "bufferView" : 8,
            "componentType" : 5126,
            "count" : 192,
            "type" : "VEC2"
        },
        {
            "bufferView" : 9,
            "componentType" : 5123,
            "count" : 372,
            "type" : "SCALAR"
        }
    ],
    "bufferViews" : [
        {
            "buffer" : 0,
            "byteLength" : 26040,
            "byteOffset" : 0
        },
        {
            "buffer" : 0,
            "byteLength" : 26040,
            "byteOffset" : 26040
        },
        {
            "buffer" : 0,
            "byteLength" : 17360,
            "byteOffset" : 52080
        },
        {
            "buffer" : 0,
            "byteLength" : 12312,
            "byteOffset" : 69440
        },
        {
            "buffer" : 0,
            "byteLength" : 386760,
            "byteOffset" : 81752
        },
        {
            "buffer" : 0,
            "byteLength" : 170217,
            "byteOffset" : 468512
        },
        {
            "buffer" : 0,
            "byteLength" : 2304,
            "byteOffset" : 638732
        },
        {
            "buffer" : 0,
            "byteLength" : 2304,
            "byteOffset" : 641036
        },
        {
            "buffer" : 0,
            "byteLength" : 1536,
            "byteOffset" : 643340
        },
        {
            "buffer" : 0,
            "byteLength" : 744,
            "byteOffset" : 644876
        }
    ],
    "buffers" : [
        {
            "byteLength" : 645620,
            "uri" : "data:application/octet-stream;base64,"
        }
    ]
}
