{
    "asset" : {
        "generator" : "Khronos glTF Blender I/O v1.3.48",
        "version" : "2.0"
    },
    "scene" : 0,
    "scenes" : [
        {
            "name" : "Scene",
            "nodes" : [
                0
            ]
        }
    ],
    "nodes" : [
        {
            "mesh" : 0,
            "name" : "Sword",
            "translation" : [
                11.481209754943848,
                1.736047387123108,
                -6.1191182136535645
            ]
        }
    ],
    "materials" : [
        {
            "doubleSided" : true,
            "emissiveFactor" : [
                0,
                0,
                0
            ],
            "name" : "SwordGold.001",
            "normalTexture" : {
                "index" : 0,
                "texCoord" : 0
            },
            "pbrMetallicRoughness" : {
                "baseColorTexture" : {
                    "index" : 1,
                    "texCoord" : 0
                },
                "metallicRoughnessTexture" : {
                    "index" : 2,
                    "texCoord" : 0
                }
            }
        },
        {
            "doubleSided" : true,
            "emissiveFactor" : [
                0,
                0,
                0
            ],
            "name" : "Copper.001",
            "pbrMetallicRoughness" : {
                "baseColorTexture" : {
                    "index" : 3,
                    "texCoord" : 0
                },
                "metallicRoughnessTexture" : {
                    "index" : 4,
                    "texCoord" : 0
                }
            }
        },
        {
            "doubleSided" : true,
            "emissiveFactor" : [
                0,
                0,
                0
            ],
            "name" : "Leather.001",
            "normalTexture" : {
                "index" : 5,
                "texCoord" : 0
            },
            "pbrMetallicRoughness" : {
                "baseColorTexture" : {
                    "index" : 6,
                    "texCoord" : 0
                },
                "metallicRoughnessTexture" : {
                    "index" : 7,
                    "texCoord" : 0
                }
            }
        },
        {
            "doubleSided" : true,
            "emissiveFactor" : [
                0,
                0,
                0
            ],
            "name" : "SwordSteel.001",
            "pbrMetallicRoughness" : {
                "baseColorTexture" : {
                    "index" : 8,
                    "texCoord" : 0
                },
                "metallicRoughnessTexture" : {
                    "index" : 9,
                    "texCoord" : 0
                }
            }
        }
    ],
    "meshes" : [
        {
            "name" : "Cylinder.004",
            "primitives" : [
                {
                    "attributes" : {
                        "POSITION" : 0,
                        "NORMAL" : 1,
                        "TEXCOORD_0" : 2
                    },
                    "indices" : 3,
                    "material" : 0
                },
                {
                    "attributes" : {
                        "POSITION" : 4,
                        "NORMAL" : 5,
                        "TEXCOORD_0" : 6
                    },
                    "indices" : 7,
                    "material" : 1
                },
                {
                    "attributes" : {
                        "POSITION" : 8,
                        "NORMAL" : 9,
                        "TEXCOORD_0" : 10
                    },
                    "indices" : 11,
                    "material" : 2
                },
                {
                    "attributes" : {
                        "POSITION" : 12,
                        "NORMAL" : 13,
                        "TEXCOORD_0" : 14
                    },
                    "indices" : 15,
                    "material" : 3
                }
            ]
        }
    ],
    "textures" : [
        {
            "source" : 0
        },
        {
            "source" : 1
        },
        {
            "source" : 2
        },
        {
            "source" : 3
        },
        {
            "source" : 4
        },
        {
            "source" : 5
        },
        {
            "source" : 6
        },
        {
            "source" : 7
        },
        {
            "source" : 8
        },
        {
            "source" : 9
        }
    ],
    "images" : [
        {
            "bufferView" : 4,
            "mimeType" : "image/png",
            "name" : "Sword_SwordGold_Normal"
        },
        {
            "bufferView" : 5,
            "mimeType" : "image/png",
            "name" : "Sword_SwordGold_BaseColor"
        },
        {
            "bufferView" : 6,
            "mimeType" : "image/png",
            "name" : "Sword_SwordGold_Roughness"
        },
        {
            "bufferView" : 11,
            "mimeType" : "image/png",
            "name" : "Sword_Copper_BaseColor"
        },
        {
            "bufferView" : 12,
            "mimeType" : "image/png",
            "name" : "Sword_Copper_Metallic-Sword_Copper_Roughness"
        },
        {
            "bufferView" : 17,
            "mimeType" : "image/png",
            "name" : "Sword_Leather_Normal"
        },
        {
            "bufferView" : 18,
            "mimeType" : "image/png",
            "name" : "Sword_Leather_BaseColor"
        },
        {
            "bufferView" : 19,
            "mimeType" : "image/png",
            "name" : "Sword_Leather_Roughness"
        },
        {
            "bufferView" : 24,
            "mimeType" : "image/png",
            "name" : "Sword_SwordSteel_BaseColor"
        },
        {
            "bufferView" : 25,
            "mimeType" : "image/png",
            "name" : "Sword_SwordSteel_Roughness"
        }
    ],
    "accessors" : [
        {
            "bufferView" : 0,
            "componentType" : 5126,
            "count" : 363,
            "max" : [
                0.03926372528076172,
                0.4622994661331177,
                0.012474536895751953
            ],
            "min" : [
                -0.03964710235595703,
                0.3833884000778198,
                -0.012459278106689453
            ],
            "type" : "VEC3"
        },
        {
            "bufferView" : 1,
            "componentType" : 5126,
            "count" : 363,
            "type" : "VEC3"
        },
        {
            "bufferView" : 2,
            "componentType" : 5126,
            "count" : 363,
            "type" : "VEC2"
        },
        {
            "bufferView" : 3,
            "componentType" : 5123,
            "count" : 660,
            "type" : "SCALAR"
        },
        {
            "bufferView" : 7,
            "componentType" : 5126,
            "count" : 830,
            "max" : [
                0.24093246459960938,
                0.469201922416687,
                0.03674507141113281
            ],
            "min" : [
                -0.2413158416748047,
                -0.02116537094116211,
                -0.03672981262207031
            ],
            "type" : "VEC3"
        },
        {
            "bufferView" : 8,
            "componentType" : 5126,
            "count" : 830,
            "type" : "VEC3"
        },
        {
            "bufferView" : 9,
            "componentType" : 5126,
            "count" : 830,
            "type" : "VEC2"
        },
        {
            "bufferView" : 10,
            "componentType" : 5123,
            "count" : 1548,
            "type" : "SCALAR"
        },
        {
            "bufferView" : 13,
            "componentType" : 5126,
            "count" : 84,
            "max" : [
                0.041184425354003906,
                0.3503309488296509,
                0.04138374328613281
            ],
            "min" : [
                -0.041568756103515625,
                0.060620903968811035,
                -0.04136991500854492
            ],
            "type" : "VEC3"
        },
        {
            "bufferView" : 14,
            "componentType" : 5126,
            "count" : 84,
            "type" : "VEC3"
        },
        {
            "bufferView" : 15,
            "componentType" : 5126,
            "count" : 84,
            "type" : "VEC2"
        },
        {
            "bufferView" : 16,
            "componentType" : 5123,
            "count" : 288,
            "type" : "SCALAR"
        },
        {
            "bufferView" : 20,
            "componentType" : 5126,
            "count" : 204,
            "max" : [
                0.0672006607055664,
                -0.02116525173187256,
                0.006364345550537109
            ],
            "min" : [
                -0.06758403778076172,
                -1.9659911394119263,
                -0.006349086761474609
            ],
            "type" : "VEC3"
        },
        {
            "bufferView" : 21,
            "componentType" : 5126,
            "count" : 204,
            "type" : "VEC3"
        },
        {
            "bufferView" : 22,
            "componentType" : 5126,
            "count" : 204,
            "type" : "VEC2"
        },
        {
            "bufferView" : 23,
            "componentType" : 5123,
            "count" : 354,
            "type" : "SCALAR"
        }
    ],
    "bufferViews" : [
        {
            "buffer" : 0,
            "byteLength" : 4356,
            "byteOffset" : 0
        },
        {
            "buffer" : 0,
            "byteLength" : 4356,
            "byteOffset" : 4356
        },
        {
            "buffer" : 0,
            "byteLength" : 2904,
            "byteOffset" : 8712
        },
        {
            "buffer" : 0,
            "byteLength" : 1320,
            "byteOffset" : 11616
        },
        {
            "buffer" : 0,
            "byteLength" : 20482,
            "byteOffset" : 12936
        },
        {
            "buffer" : 0,
            "byteLength" : 31301,
            "byteOffset" : 33420
        },
        {
            "buffer" : 0,
            "byteLength" : 28700,
            "byteOffset" : 64724
        },
        {
            "buffer" : 0,
            "byteLength" : 9960,
            "byteOffset" : 93424
        },
        {
            "buffer" : 0,
            "byteLength" : 9960,
            "byteOffset" : 103384
        },
        {
            "buffer" : 0,
            "byteLength" : 6640,
            "byteOffset" : 113344
        },
        {
            "buffer" : 0,
            "byteLength" : 3096,
            "byteOffset" : 119984
        },
        {
            "buffer" : 0,
            "byteLength" : 109767,
            "byteOffset" : 123080
        },
        {
            "buffer" : 0,
            "byteLength" : 132592,
            "byteOffset" : 232848
        },
        {
            "buffer" : 0,
            "byteLength" : 1008,
            "byteOffset" : 365440
        },
        {
            "buffer" : 0,
            "byteLength" : 1008,
            "byteOffset" : 366448
        },
        {
            "buffer" : 0,
            "byteLength" : 672,
            "byteOffset" : 367456
        },
        {
            "buffer" : 0,
            "byteLength" : 576,
            "byteOffset" : 368128
        },
        {
            "buffer" : 0,
            "byteLength" : 61680,
            "byteOffset" : 368704
        },
        {
            "buffer" : 0,
            "byteLength" : 50000,
            "byteOffset" : 430384
        },
        {
            "buffer" : 0,
            "byteLength" : 40348,
            "byteOffset" : 480384
        },
        {
            "buffer" : 0,
            "byteLength" : 2448,
            "byteOffset" : 520732
        },
        {
            "buffer" : 0,
            "byteLength" : 2448,
            "byteOffset" : 523180
        },
        {
            "buffer" : 0,
            "byteLength" : 1632,
            "byteOffset" : 525628
        },
        {
            "buffer" : 0,
            "byteLength" : 708,
            "byteOffset" : 527260
        },
        {
            "buffer" : 0,
            "byteLength" : 107571,
            "byteOffset" : 527968
        },
        {
            "buffer" : 0,
            "byteLength" : 187491,
            "byteOffset" : 635540
        }
    ],
    "buffers" : [
        {
            "byteLength" : 823032,
            "uri" : "data:application/octet-stream;base64,"
        }
    ]
}
